<svg width="26" height="26" viewBox="0 0 26 26" fill="none" xmlns="http://www.w3.org/2000/svg">
<g clip-path="url(#clip0_839_107)">
<path d="M13.4756 0.906372C6.78613 0.906372 1.36621 6.32629 1.36621 13.0157C1.36621 19.7052 6.78613 25.1251 13.4756 25.1251C20.165 25.1251 25.585 19.7052 25.585 13.0157C25.585 6.32629 20.165 0.906372 13.4756 0.906372ZM13.4756 5.59387C15.8486 5.59387 17.7725 7.5177 17.7725 9.89075C17.7725 12.2638 15.8486 14.1876 13.4756 14.1876C11.1025 14.1876 9.17871 12.2638 9.17871 9.89075C9.17871 7.5177 11.1025 5.59387 13.4756 5.59387ZM13.4756 22.3907C10.6094 22.3907 8.04102 21.0919 6.32227 19.0607C7.24023 17.3322 9.03711 16.1407 11.1318 16.1407C11.249 16.1407 11.3662 16.1603 11.4785 16.1945C12.1133 16.3995 12.7773 16.5314 13.4756 16.5314C14.1738 16.5314 14.8428 16.3995 15.4727 16.1945C15.585 16.1603 15.7021 16.1407 15.8193 16.1407C17.9141 16.1407 19.7109 17.3322 20.6289 19.0607C18.9102 21.0919 16.3418 22.3907 13.4756 22.3907Z" fill="#868686"/>
</g>
<defs>
<clipPath id="clip0_839_107">
<rect width="25" height="25" fill="white" transform="translate(0.975586 0.515747)"/>
</clipPath>
</defs>
</svg>
